tugOfWar_states
version=1
nRows=66
nColumns=7
inDegrees=yes

# SIMM Motion File Header:
name tugOfWar_states
datacolumns 7
datarows 66
otherdata 1
range 0.29435455 0.42555570
endheader
time	/jointset/ground_block/block_tz/value	/jointset/ground_block/block_tz/speed	/forceset/muscle1/activation	/forceset/muscle1/fiber_length	/forceset/muscle2/activation	/forceset/muscle2/fiber_length
      0.29435455	     -0.01094579	      0.21482771	      0.01371138	      0.08779120	     -0.00487636	      0.11020731
      0.29653499	     -0.01047864	      0.21366971	      0.01340376	      0.08827663	     -0.00510094	      0.10979934
      0.29871544	     -0.01001404	      0.21247585	      0.01310329	      0.08875934	     -0.00532553	      0.10935422
      0.30152978	     -0.00941824	      0.21093749	      0.01272578	      0.08937852	     -0.00561541	      0.10881728
      0.30406172	     -0.00888594	      0.20951613	      0.01239579	      0.08993152	     -0.00587620	      0.10829114
      0.30659366	     -0.00835724	      0.20811467	      0.01207465	      0.09048133	     -0.00613699	      0.10782578
      0.30912560	     -0.00783212	      0.20667844	      0.01176211	      0.09102622	     -0.00639778	      0.10731805
      0.31218585	     -0.00720228	      0.20495335	      0.01139549	      0.09168510	     -0.00671298	      0.10674778
      0.31491823	     -0.00664440	      0.20339881	      0.01107813	      0.09224724	     -0.00699442	      0.10620321
      0.31702731	     -0.00621668	      0.20218660	      0.01083941	      0.09271693	     -0.00721165	      0.10581281
      0.31913639	     -0.00579152	      0.20099576	      0.01060600	      0.09313801	     -0.00742889	      0.10541319
      0.32124548	     -0.00536888	      0.19978084	      0.01037776	      0.09359514	     -0.00764612	      0.10501567
      0.32335456	     -0.00494879	      0.19858749	      0.01015458	      0.09401500	     -0.00786336	      0.10462006
      0.32546364	     -0.00453122	      0.19737583	      0.00993610	      0.09446229	     -0.00808059	      0.10422640
      0.32757272	     -0.00411621	      0.19616499	      0.00971886	      0.09486611	     -0.00829783	      0.10383468
      0.33023424	     -0.00359621	      0.19456773	      0.00944472	      0.09541544	     -0.00857197	      0.10334327
      0.33200495	     -0.00325262	      0.19350875	      0.00926234	      0.09572881	     -0.00875435	      0.10301807
      0.33377566	     -0.00291095	      0.19240715	      0.00907996	      0.09607924	     -0.00893673	      0.10269441
      0.33644483	     -0.00239962	      0.19072483	      0.00880503	      0.09658087	     -0.00921166	      0.10220947
      0.33861537	     -0.00198717	      0.18931161	      0.00858147	      0.09701143	     -0.00943522	      0.10181773
      0.34078591	     -0.00157780	      0.18789580	      0.00835790	      0.09740065	     -0.00965879	      0.10142845
      0.34295645	     -0.00117154	      0.18642953	      0.00813434	      0.09783137	     -0.00988235	      0.10104169
      0.34512699	     -0.00076848	      0.18497096	      0.00791077	      0.09820757	     -0.01010592	      0.10065748
      0.34729753	     -0.00036862	      0.18345570	      0.00768721	      0.09863969	     -0.01032949	      0.10027591
      0.34946807	      0.00002794	      0.18195999	      0.00746364	      0.09900117	     -0.01055305	      0.09989548
      0.35163861	      0.00042123	      0.18040805	      0.00724007	      0.09943606	     -0.01077662	      0.09950645
      0.35354491	      0.00076387	      0.17908579	      0.00704373	      0.09974727	     -0.01097297	      0.09916305
      0.35545121	      0.00110398	      0.17773818	      0.00684738	      0.10010189	     -0.01116931	      0.09882152
      0.35783073	      0.00152492	      0.17606467	      0.00660229	      0.10050025	     -0.01141440	      0.09839858
      0.35999513	      0.00190432	      0.17450454	      0.00637935	      0.10088964	     -0.01163734	      0.09801732
      0.36215953	      0.00228033	      0.17295286	      0.00615642	      0.10122691	     -0.01186027	      0.09763937
      0.36407081	      0.00260954	      0.17153493	      0.00595956	      0.10157584	     -0.01205713	      0.09730844
      0.36598210	      0.00293605	      0.17012956	      0.00576270	      0.10187280	     -0.01225400	      0.09698016
      0.36789338	      0.00325985	      0.16868787	      0.00556583	      0.10220222	     -0.01245086	      0.09665457
      0.37020616	      0.00364796	      0.16694502	      0.00532762	      0.10255626	     -0.01268907	      0.09626422
      0.37203449	      0.00395190	      0.16552443	      0.00513930	      0.10287791	     -0.01287739	      0.09595850
      0.37386282	      0.00425324	      0.16411359	      0.00495098	      0.10315323	     -0.01306571	      0.09565532
      0.37569115	      0.00455198	      0.16267120	      0.00476266	      0.10345383	     -0.01325403	      0.09535472
      0.37810019	      0.00494156	      0.16076733	      0.00451453	      0.10380963	     -0.01350216	      0.09496261
      0.37982446	      0.00521756	      0.15936392	      0.00433693	      0.10410285	     -0.01367976	      0.09468478
      0.38154873	      0.00549114	      0.15796869	      0.00415933	      0.10435418	     -0.01385736	      0.09440931
      0.38376771	      0.00583965	      0.15613210	      0.00393078	      0.10470847	     -0.01408591	      0.09405834
      0.38564127	      0.00613072	      0.15458504	      0.00373780	      0.10496474	     -0.01427889	      0.09376512
      0.38751484	      0.00641886	      0.15299149	      0.00354482	      0.10526889	     -0.01447187	      0.09347481
      0.38938840	      0.00670402	      0.15141068	      0.00335185	      0.10551647	     -0.01466484	      0.09318741
      0.39126196	      0.00698618	      0.14977837	      0.00315887	      0.10582018	     -0.01485782	      0.09290299
      0.39313552	      0.00726528	      0.14816686	      0.00296589	      0.10605313	     -0.01505080	      0.09262154
      0.39480621	      0.00751158	      0.14667825	      0.00279381	      0.10632158	     -0.01522288	      0.09237313
      0.39647689	      0.00775540	      0.14520353	      0.00262173	      0.10653726	     -0.01539496	      0.09212713
      0.39814757	      0.00799674	      0.14369639	      0.00244965	      0.10678186	     -0.01556704	      0.09188360
      0.40030607	      0.00830479	      0.14174823	      0.00222733	      0.10705712	     -0.01578936	      0.09157261
      0.40192309	      0.00853280	      0.14024883	      0.00206077	      0.10730264	     -0.01595592	      0.09134237
      0.40354011	      0.00875838	      0.13875911	      0.00189422	      0.10750375	     -0.01612247	      0.09111450
      0.40551722	      0.00903089	      0.13689664	      0.00169058	      0.10778538	     -0.01632611	      0.09083913
      0.40721680	      0.00926220	      0.13530315	      0.00151552	      0.10798110	     -0.01650117	      0.09060529
      0.40891639	      0.00949077	      0.13366507	      0.00134046	      0.10822580	     -0.01667623	      0.09037415
      0.41061597	      0.00971656	      0.13203968	      0.00116541	      0.10841714	     -0.01685128	      0.09014572
      0.41231556	      0.00993957	      0.13036963	      0.00099035	      0.10865755	     -0.01702634	      0.08992003
      0.41401514	      0.01015973	      0.12871493	      0.00081529	      0.10884055	     -0.01720140	      0.08969710
      0.41571472	      0.01037705	      0.12701098	      0.00064023	      0.10907997	     -0.01737646	      0.08947697
      0.41741431	      0.01059148	      0.12532941	      0.00046518	      0.10925435	     -0.01755151	      0.08925965
      0.41911389	      0.01080303	      0.12359359	      0.00029012	      0.10948911	     -0.01772657	      0.08904517
      0.42081348	      0.01101162	      0.12188328	      0.00011506	      0.10965778	     -0.01790163	      0.08883355
      0.42251306	      0.01121728	      0.12011726	     -0.00005999	      0.10988504	     -0.01807669	      0.08862481
      0.42403438	      0.01139883	      0.11855535	     -0.00021669	      0.11003000	     -0.01823338	      0.08844043
      0.42555570	      0.01157798	      0.11695394	     -0.00037339	      0.11021979	     -0.01839008	      0.08825840
